<svg id="cart-svgrepo-com_1_" data-name="cart-svgrepo-com (1)" xmlns="http://www.w3.org/2000/svg" width="23.4" height="21.06" viewBox="0 0 23.4 21.06">
  <path id="Path_281" data-name="Path 281" d="M25.192,8.184a1.17,1.17,0,0,0-.962-.5H8.24L6.889,4.439A2.333,2.333,0,0,0,4.73,3H2V5.34H4.73l5.55,13.32a1.17,1.17,0,0,0,1.08.72h9.36a1.173,1.173,0,0,0,1.1-.758l3.51-9.36a1.17,1.17,0,0,0-.135-1.078Z" transform="translate(-2 -3)"/>
  <ellipse id="Ellipse_63" data-name="Ellipse 63" cx="1.5" cy="2" rx="1.5" ry="2" transform="translate(8.4 17.06)"/>
  <ellipse id="Ellipse_64" data-name="Ellipse 64" cx="1.5" cy="2" rx="1.5" ry="2" transform="translate(16.4 17.06)"/>
</svg>
