<svg id="Iconly_Bold_Home" data-name="Iconly/Bold/Home" xmlns="http://www.w3.org/2000/svg" xmlns:xlink="http://www.w3.org/1999/xlink" width="25.333" height="24.333" viewBox="0 0 25.333 24.333">
  <defs>
    <clipPath id="clip-path">
      <path id="Path_244" data-name="Path 244" d="M8.846,22.841v-3.72a1.816,1.816,0,0,1,1.9-1.72h3.832a2,2,0,0,1,1.342.5,1.641,1.641,0,0,1,.556,1.216v3.72A1.413,1.413,0,0,0,16.95,23.9a1.725,1.725,0,0,0,1.161.438h2.615a4.852,4.852,0,0,0,3.258-1.216,3.976,3.976,0,0,0,1.35-2.948V9.571A2.912,2.912,0,0,0,24.14,7.257L15.245.822A4.439,4.439,0,0,0,9.981.909L1.289,7.257A2.933,2.933,0,0,0,0,9.571V20.159a4.407,4.407,0,0,0,4.608,4.175H7.163a1.577,1.577,0,0,0,1.648-1.482Z" transform="translate(0 0)" fill="#e14b34"/>
    </clipPath>
  </defs>
  <g id="Home">
    <g id="Mask_Group_3" data-name="Mask Group 3" clip-path="url(#clip-path)">
      <path id="home-svgrepo-com" d="M24.889,9.958l-3.17-2.583V3.243a.845.845,0,0,0-.844-.844H18.88a.845.845,0,0,0-.844.844V4.373L13.8.922a1.86,1.86,0,0,0-2.269,0L.445,9.958c-.5.41-.474.768-.411.945s.265.472.912.472H2.464V23.261A1.538,1.538,0,0,0,4,24.8H8.793a1.5,1.5,0,0,0,1.5-1.538V18.386a.834.834,0,0,1,.805-.8h3.222a.767.767,0,0,1,.729.8v4.874A1.577,1.577,0,0,0,16.617,24.8h4.718a1.538,1.538,0,0,0,1.534-1.538V11.374h1.518c.647,0,.849-.3.912-.472S25.392,10.368,24.889,9.958Z" transform="translate(0 -0.5)" fill="#e14b34"/>
    </g>
  </g>
</svg>
