<svg id="Iconly_Bold_Profile" data-name="Iconly/Bold/Profile" xmlns="http://www.w3.org/2000/svg" width="19.417" height="24.271" viewBox="0 0 19.417 24.271">
  <g id="Profile">
    <path id="Path_227" data-name="Path 227" d="M7.1,16.444a32.678,32.678,0,0,1,5.249,0,21.409,21.409,0,0,1,2.835.356c2.026.41,3.349,1.08,3.916,2.159a2.988,2.988,0,0,1,0,2.688c-.567,1.08-1.837,1.792-3.937,2.159a20.349,20.349,0,0,1-2.835.367,24.166,24.166,0,0,1-2.656.1H8.063a7.656,7.656,0,0,0-.976-.065,19.4,19.4,0,0,1-2.835-.356C2.226,23.461.9,22.77.336,21.691A2.961,2.961,0,0,1,0,20.33a2.928,2.928,0,0,1,.326-1.371c.556-1.08,1.879-1.782,3.927-2.159A20.733,20.733,0,0,1,7.1,16.444ZM9.712,0a6.465,6.465,0,0,1,6.373,6.554,6.465,6.465,0,0,1-6.373,6.554A6.465,6.465,0,0,1,3.339,6.554,6.465,6.465,0,0,1,9.712,0Z" transform="translate(0 0)" fill="#211f21"/>
  </g>
</svg>
